<svg xmlns="http://www.w3.org/2000/svg" viewBox="0 0 100 100" width="200" height="200">
  <defs>
    <linearGradient id="body" x1="0" y1="0" x2="0" y2="1">
      <stop offset="0%" stop-color="#FFF4D0"/>
      <stop offset="14%" stop-color="#F6E0A0"/>
      <stop offset="45%" stop-color="#E8C16A"/>
      <stop offset="78%" stop-color="#B8893A"/>
      <stop offset="100%" stop-color="#7A4A12"/>
    </linearGradient>
  </defs>
  <ellipse cx="50" cy="95" rx="26.599999999999998" ry="4" fill="#3A280E59"/>
  <path d="M 50 14 L 30.75 16.79 L 24.22 19.57 L 20.11 22.36 L 17.32 25.14 L 15.4 27.93 L 14.08 30.71 L 13.21 33.5 L 12.65 36.29 L 12.31 39.07 L 12.13 41.86 L 12.04 44.64 L 12.01 47.43 L 12 50.21 L 12 53 L 12 55.79 L 12.01 58.57 L 12.04 61.36 L 12.13 64.14 L 12.31 66.93 L 12.65 69.71 L 13.21 72.5 L 14.08 75.29 L 15.4 78.07 L 17.32 80.86 L 20.11 83.64 L 24.22 86.43 L 30.75 89.21 L 50 92 L 50 92 L 69.25 89.21 L 75.78 86.43 L 79.89 83.64 L 82.68 80.86 L 84.6 78.07 L 85.92 75.29 L 86.79 72.5 L 87.35 69.71 L 87.69 66.93 L 87.87 64.14 L 87.96 61.36 L 87.99 58.57 L 88 55.79 L 88 53 L 88 50.21 L 87.99 47.43 L 87.96 44.64 L 87.87 41.86 L 87.69 39.07 L 87.35 36.29 L 86.79 33.5 L 85.92 30.71 L 84.6 27.93 L 82.68 25.14 L 79.89 22.36 L 75.78 19.57 L 69.25 16.79 L 50 14 Z" fill="url(#body)" stroke="#5A3E16" stroke-width="2" stroke-linejoin="round"/>
  <ellipse cx="37.84" cy="31.16" rx="6.84" ry="8.36" fill="#FFF4D0" opacity="0.5"/>
  <!-- bean: import as the base body shape; the §4.2 ramp is the gradient above; redraw the face per build-spec.json -->
</svg>
