<svg xmlns="http://www.w3.org/2000/svg" viewBox="0 0 100 100" width="200" height="200">
  <defs>
    <linearGradient id="body" x1="0" y1="0" x2="0" y2="1">
      <stop offset="0%" stop-color="#E8FBB0"/>
      <stop offset="14%" stop-color="#9BE86A"/>
      <stop offset="45%" stop-color="#5BC661"/>
      <stop offset="78%" stop-color="#2E7D4F"/>
      <stop offset="100%" stop-color="#1E4D3B"/>
    </linearGradient>
  </defs>
  <ellipse cx="50" cy="95" rx="29.4" ry="4" fill="#10231C59"/>
  <path d="M 30.28 14 L 28.54 16.79 L 26.91 19.57 L 25.38 22.36 L 23.94 25.14 L 22.57 27.93 L 21.28 30.71 L 20.06 33.5 L 18.91 36.29 L 17.82 39.07 L 16.8 41.86 L 15.83 44.64 L 14.93 47.43 L 14.08 50.21 L 13.29 53 L 12.56 55.79 L 11.88 58.57 L 11.26 61.36 L 10.69 64.14 L 10.18 66.93 L 9.72 69.71 L 9.32 72.5 L 8.97 75.29 L 8.67 78.07 L 8.43 80.86 L 8.24 83.64 L 8.11 86.43 L 8.03 89.21 L 8 92 L 92 92 L 91.97 89.21 L 91.89 86.43 L 91.76 83.64 L 91.57 80.86 L 91.33 78.07 L 91.03 75.29 L 90.68 72.5 L 90.28 69.71 L 89.82 66.93 L 89.31 64.14 L 88.74 61.36 L 88.12 58.57 L 87.44 55.79 L 86.71 53 L 85.92 50.21 L 85.07 47.43 L 84.17 44.64 L 83.2 41.86 L 82.18 39.07 L 81.09 36.29 L 79.94 33.5 L 78.72 30.71 L 77.43 27.93 L 76.06 25.14 L 74.62 22.36 L 73.09 19.57 L 71.46 16.79 L 69.72 14 Z" fill="url(#body)" stroke="#16352B" stroke-width="2" stroke-linejoin="round"/>
  <ellipse cx="36.56" cy="31.16" rx="7.56" ry="9.24" fill="#E8FBB0" opacity="0.5"/>
  <!-- slime: import as the base body shape; the §4.2 ramp is the gradient above; redraw the face per build-spec.json -->
</svg>
